#!OML:ASF H:\Terrain\Patient Classification 1\Terrain2\Thursday\justin.ASF
:FULLY-SPECIFIED
:DEGREES
1946
root 9.30766 17.6786 -8.76163 183.222 -0.438919 -173.121
lowerback 3.33055 0.70539 6.40941
upperback 0.0276277 1.00254 3.66989
thorax -1.78749 0.349875 0.147152
lowerneck -15.497 -2.18429 -9.07171
upperneck 23.0182 -2.15887 2.69765
head 10.0217 -1.7825 2.13189
rclavicle -6.95746e-016 -1.19271e-015
rhumerus -25.2251 -6.67276 -80.2608
rradius 33.6876
rwrist -13.5223
rhand -20.08 10.9308
rfingers 7.12502
rthumb 6.26254 -18.9566
lclavicle -6.95746e-016 -1.19271e-015
lhumerus -34.288 2.9112 88.697
lradius 28.0477
lwrist 0.789465
lhand -17.5371 21.1462
lfingers 7.12502
lthumb 8.71707 -309.054
rfemur -6.78876 -2.49943 29.8235
rtibia 24.1326
rfoot -17.0696 2.80746
rtoes 14.8143
lfemur -17.4092 0.212083 -13.6954
ltibia 30.334
lfoot -11.2293 -6.51626
ltoes 9.13643
1947
root 9.29616 17.664 -8.81129 183.111 -0.478413 -172.91
lowerback 3.2738 0.643925 6.53799
upperback 0.103912 0.907527 3.7133
thorax -1.6791 0.301962 0.125788
lowerneck -15.519 -2.21149 -9.05065
upperneck 22.9356 -2.23894 2.90724
head 10.0022 -1.78612 2.19234
rclavicle 1.73937e-015 -1.59028e-015
rhumerus -25.2656 -7.04864 -80.3499
rradius 33.4421
rwrist -13.429
rhand -20.0787 11.0961
rfingers 7.12502
rthumb 6.26387 -18.7913
lclavicle 1.73937e-015 -1.59028e-015
lhumerus -34.2616 2.77349 88.6987
lradius 27.7116
lwrist 0.981165
lhand -18.5755 20.8549
lfingers 7.12502
lthumb 7.71494 -309.306
rfemur -6.42813 -2.48964 30.0123
rtibia 24.0444
rfoot -17.1523 2.68239
rtoes 14.0961
lfemur -17.2081 0.301533 -13.4644
ltibia 30.4026
lfoot -11.8022 -6.6035
ltoes 8.00209
1948
root 9.28414 17.6569 -8.85949 183.1 -0.440775 -172.928
lowerback 3.22451 0.575982 6.43728
upperback 0.063747 0.814214 3.71171
thorax -1.69881 0.256544 0.184389
lowerneck -15.4339 -2.14475 -9.08639
upperneck 22.9331 -2.20243 3.12246
head 9.98378 -1.75021 2.27987
rclavicle -5.51627e-015 -1.70955e-014
rhumerus -25.6146 -7.19458 -80.4478
rradius 33.413
rwrist -13.3786
rhand -20.52 11.1139
rfingers 7.12502
rthumb 5.83778 -18.7856
lclavicle -5.51627e-015 -1.70955e-014
lhumerus -34.2922 3.18437 88.367
lradius 27.1424
lwrist 0.08401
lhand -18.0506 21.0415
lfingers 7.12502
lthumb 8.2215 -309.138
rfemur -6.21857 -2.20376 29.9772
rtibia 24.0507
rfoot -17.1856 2.32684
rtoes 13.0503
lfemur -17.0485 0.395131 -13.5042
ltibia 30.409
lfoot -12.1261 -6.94284
ltoes 7.64101
1949
root 9.27526 17.6584 -8.90824 183.093 -0.35072 -173.036
lowerback 3.21734 0.544076 6.24397
upperback -0.007361 0.776503 3.67659
thorax -1.77257 0.240178 0.256881
lowerneck -15.5409 -2.07216 -9.05385
upperneck 23.1443 -2.13993 3.21762
head 10.0749 -1.71803 2.31687
rclavicle -6.31141e-015 -8.07066e-014
rhumerus -26.0742 -7.46463 -80.4793
rradius 33.5136
rwrist -13.2348
rhand -20.838 10.9556
rfingers 7.12502
rthumb 5.53081 -18.9522
lclavicle -6.31141e-015 -8.07066e-014
lhumerus -34.3674 3.1928 88.3024
lradius 26.5973
lwrist 0.708123
lhand -18.8692 22.2996
lfingers 7.12502
lthumb 7.43138 -307.851
rfemur -6.09664 -1.64329 29.8744
rtibia 24.2129
rfoot -17.3708 1.82132
rtoes 12.6123
lfemur -16.7726 0.608495 -13.6637
ltibia 30.2852
lfoot -11.8921 -7.29131
ltoes 8.76999
1950
root 9.26651 17.6568 -8.96421 183.036 -0.225471 -173.425
lowerback 3.06866 0.508501 5.77037
upperback 0.0670633 0.711721 3.56067
thorax -1.62017 0.224373 0.403521
lowerneck -15.8029 -2.06044 -9.0067
upperneck 23.2812 -2.12139 3.27062
head 10.1722 -1.6994 2.33048
rclavicle -8.49804e-015 -4.37326e-014
rhumerus -26.1584 -7.74284 -80.5798
rradius 33.4553
rwrist -13.0184
rhand -20.8505 9.9599
rfingers 7.12502
rthumb 5.51871 -19.9482
lclavicle -8.49804e-015 -4.37326e-014
lhumerus -34.3578 3.00694 88.4076
lradius 26.3932
lwrist 1.77598
lhand -20.0455 23.9737
lfingers 7.12502
lthumb 6.2959 -306.14
rfemur -5.88653 -1.22754 29.4212
rtibia 24.3894
rfoot -17.6112 1.56613
rtoes 13.2528
lfemur -16.3507 0.807088 -14.1472
ltibia 30.1357
lfoot -11.7865 -7.34932
ltoes 9.90416
1951
root 9.25235 17.6518 -9.01925 182.958 -0.0906862 -173.97
lowerback 2.93805 0.188692 5.11053
upperback 0.157165 0.682749 3.43018
thorax -1.47797 0.405737 0.632544
lowerneck -15.8302 -2.01019 -8.84194
upperneck 23.2013 -2.06249 3.19852
head 10.1415 -1.66075 2.28496
rclavicle 4.37326e-015 -5.1684e-015
rhumerus -26.1753 -7.95046 -80.706
rradius 33.2447
rwrist -13.1342
rhand -20.6087 9.21413
rfingers 7.12502
rthumb 5.75218 -20.6878
lclavicle 4.37326e-015 -5.1684e-015
lhumerus -34.2975 4.22196 87.6219
lradius 26.4099
lwrist -1.91491
lhand -15.765 26.1826
lfingers 7.12502
lthumb 10.4269 -304.096
rfemur -5.61564 -0.908887 28.7795
rtibia 24.5056
rfoot -17.7569 1.34251
rtoes 13.6974
lfemur -15.9626 0.923962 -14.8227
ltibia 30.0504
lfoot -11.997 -7.2503
ltoes 8.62281
1952
root 9.23851 17.6498 -9.05943 182.96 -0.088122 -174.021
lowerback 2.96786 0.142244 4.98027
upperback 0.122638 0.620006 3.45181
thorax -1.53326 0.373639 0.729591
lowerneck -15.8582 -2.01283 -8.84351
upperneck 23.2519 -2.07725 3.23244
head 10.1661 -1.6665 2.29535
rclavicle 9.93923e-016 4.8901e-014
rhumerus -26.4045 -8.05967 -80.7438
rradius 33.0612
rwrist -13.4798
rhand -20.6074 9.42358
rfingers 7.12502
rthumb 5.75337 -20.4783
lclavicle 9.93923e-016 4.8901e-014
lhumerus -34.324 4.87692 87.1902
lradius 25.9428
lwrist -3.33083
lhand -15.0873 24.5955
lfingers 7.12502
lthumb 11.0805 -305.717
rfemur -5.50841 -0.651242 28.7096
rtibia 24.6456
rfoot -17.9151 1.06296
rtoes 13.533
lfemur -15.8251 1.11334 -14.9335
ltibia 29.9831
lfoot -11.6715 -7.48179
ltoes 10.7117
1953
root 9.22505 17.6461 -9.10192 183.067 -0.10335 -173.972
lowerback 2.82996 0.151345 5.0644
upperback 0.109349 0.623863 3.4316
thorax -1.46844 0.375557 0.662697
lowerneck -16.0255 -2.14918 -9.05002
upperneck 23.3992 -2.27276 3.5014
head 10.2699 -1.74607 2.39981
rclavicle -2.98177e-015 -4.85035e-014
rhumerus -26.6726 -8.33711 -80.738
rradius 32.823
rwrist -13.4916
rhand -20.8232 9.57211
rfingers 7.12502
rthumb 5.54508 -20.3353
lclavicle -2.98177e-015 -4.85035e-014
lhumerus -34.2921 4.84634 87.1021
lradius 25.685
lwrist -3.31647
lhand -15.1434 24.0803
lfingers 7.12502
lthumb 11.0265 -306.229
rfemur -5.54439 -0.661717 28.7088
rtibia 24.8275
rfoot -18.1982 1.10068
rtoes 13.3397
lfemur -15.7705 1.22482 -14.9307
ltibia 29.9055
lfoot -11.445 -7.73737
ltoes 14.0697
1954
root 9.20732 17.639 -9.154 183.192 -0.086407 -174.294
lowerback 2.59291 0.196465 4.85032
upperback 0.0446913 0.639497 3.25507
thorax -1.40056 0.375928 0.601111
lowerneck -16.0571 -2.1844 -9.01074
upperneck 23.5166 -2.37102 3.61255
head 10.3254 -1.7804 2.42006
rclavicle 7.8023e-015 -7.95139e-015
rhumerus -27.1386 -8.85842 -80.712
rradius 32.338
rwrist -13.5656
rhand -20.7751 10.9903
rfingers 7.12502
rthumb 5.59147 -18.9159
lclavicle 7.8023e-015 -7.95139e-015
lhumerus -34.3587 4.65307 86.9964
lradius 25.376
lwrist -3.004
lhand -15.3117 23.8274
lfingers 7.12502
lthumb 10.8642 -306.474
rfemur -5.58606 -0.892943 28.2444
rtibia 25.0309
rfoot -18.495 1.3893
rtoes 13.8635
lfemur -15.6301 1.26562 -15.3703
ltibia 29.8297
lfoot -11.7398 -7.86711
ltoes 13.7872
1955
root 9.18556 17.6371 -9.20525 183.32 -0.0889985 -174.694
lowerback 2.3987 0.189266 4.52854
upperback -0.0721386 0.591442 3.11091
thorax -1.41334 0.344229 0.634842
lowerneck -15.9811 -2.08082 -8.86542
upperneck 23.4979 -2.26019 3.56029
head 10.2929 -1.72452 2.39224
rclavicle 3.70236e-015 -1.03368e-014
rhumerus -27.6581 -8.89112 -80.8335
rradius 32.9152
rwrist -13.3902
rhand -21.2987 7.50232
rfingers 7.12502
rthumb 5.08596 -22.4166
lclavicle 3.70236e-015 -1.03368e-014
lhumerus -34.5391 4.45467 86.9647
lradius 25.1228
lwrist -2.68699
lhand -16.0926 23.1769
lfingers 7.12502
lthumb 10.1108 -307.086
rfemur -5.67667 -1.12573 27.6894
rtibia 25.3221
rfoot -18.7399 1.53707
rtoes 14.0748
lfemur -15.5002 1.42868 -15.9159
ltibia 29.7195
lfoot -12.0228 -8.05965
ltoes 12.9931
1956
root 9.16835 17.6376 -9.2509 183.413 -0.0295281 -174.904
lowerback 2.19884 0.184076 4.30628
upperback -0.102493 0.559416 3.08666
thorax -1.33428 0.327901 0.736117
lowerneck -15.8544 -2.0462 -8.93127
upperneck 23.2585 -2.18341 3.56061
head 10.1779 -1.68453 2.41314
rclavicle -3.40419e-015 -1.47101e-014
rhumerus -27.9229 -8.88684 -80.8902
rradius 32.802
rwrist -13.3074
rhand -21.5512 6.58251
rfingers 7.12502
rthumb 4.84213 -23.3422
lclavicle -3.40419e-015 -1.47101e-014
lhumerus -34.601 4.07905 87.1815
lradius 25.032
lwrist -1.88149
lhand -16.871 22.5371
lfingers 7.12502
lthumb 9.3598 -307.691
rfemur -5.76637 -0.755604 27.4403
rtibia 25.6472
rfoot -18.9928 1.12504
rtoes 13.4815
lfemur -15.3861 1.52795 -16.2079
ltibia 29.614
lfoot -12.4656 -8.08799
ltoes 11.1674
